<svg xmlns="http://www.w3.org/2000/svg" xmlns:xlink="http://www.w3.org/1999/xlink" width="500" zoomAndPan="magnify" viewBox="0 0 375 374.999991" height="500" preserveAspectRatio="xMidYMid meet" version="1.0"><defs><g/><clipPath id="0c669ce6db"><path d="M 75.5625 72 L 299.8125 72 L 299.8125 303 L 75.5625 303 Z M 75.5625 72 " clip-rule="nonzero"/></clipPath></defs><rect x="-37.5" width="450" fill="#ffffff" y="-37.499999" height="449.999989" fill-opacity="1"/><rect x="-37.5" width="450" fill="#ffffff" y="-37.499999" height="449.999989" fill-opacity="1"/><g clip-path="url(#0c669ce6db)"><path fill="#000000" d="M 159.34375 75.558594 C 189.550781 67.960938 220.058594 73.058594 245.152344 87.542969 C 270.726562 102.308594 290.667969 126.832031 298.917969 157.613281 C 299.097656 158.289062 299.269531 158.972656 299.441406 159.652344 L 297.675781 160.265625 C 297.496094 159.542969 297.3125 158.816406 297.117188 158.09375 C 289.003906 127.808594 269.382812 103.679688 244.21875 89.148438 C 219.1875 74.699219 188.671875 69.75 158.546875 77.683594 C 158.828125 76.980469 159.09375 76.273438 159.34375 75.558594 Z M 77.324219 215.082031 C 77.472656 215.675781 77.625 216.269531 77.785156 216.859375 C 85.898438 247.144531 105.519531 271.273438 130.683594 285.804688 C 155.832031 300.324219 186.519531 305.253906 216.789062 297.15625 C 216.496094 297.859375 216.222656 298.574219 215.960938 299.292969 C 185.621094 307.035156 154.953125 301.957031 129.753906 287.410156 C 104.175781 272.644531 84.234375 248.121094 75.988281 217.339844 C 75.84375 216.792969 75.699219 216.246094 75.5625 215.699219 Z M 77.324219 215.082031 " fill-opacity="1" fill-rule="evenodd"/></g><g fill="#000000" fill-opacity="1"><g transform="translate(58.89612, 186.745872)"><g><path d="M 14.84375 -15.53125 L 7.765625 0.71875 L 0.671875 -15.53125 L 4.34375 -15.53125 L 7.890625 -6.765625 L 11.21875 -15.53125 Z M 14.84375 -15.53125 "/></g></g></g><g fill="#000000" fill-opacity="1"><g transform="translate(91.287645, 186.745872)"><g><path d="M 9.6875 -3.03125 L 4.53125 -3.03125 L 3.265625 0 L 0.25 0 L 7.25 -16.140625 L 7.421875 -16.140625 L 14.421875 0 L 10.890625 0 Z M 8.671875 -5.609375 L 7.171875 -9.390625 L 5.609375 -5.609375 Z M 8.671875 -5.609375 "/></g></g></g><g fill="#000000" fill-opacity="1"><g transform="translate(122.835888, 186.745872)"><g><path d="M 15.984375 -15.53125 L 15.984375 0.640625 L 15.90625 0.640625 L 5.046875 -9.171875 L 5.109375 0 L 2 0 L 2 -16.140625 L 2.125 -16.140625 L 12.96875 -6.1875 L 12.90625 -15.53125 Z M 15.984375 -15.53125 "/></g></g></g><g fill="#000000" fill-opacity="1"><g transform="translate(157.694, 186.745872)"><g><path d="M 11.40625 -15.53125 L 11.40625 -12.578125 L 7.640625 -12.578125 L 7.640625 0 L 4.578125 0 L 4.578125 -12.578125 L 0.953125 -12.578125 L 0.953125 -15.53125 Z M 11.40625 -15.53125 "/></g></g></g><g fill="#000000" fill-opacity="1"><g transform="translate(186.923227, 186.745872)"><g><path d="M 5.0625 -15.53125 L 5.0625 0 L 2 0 L 2 -15.53125 Z M 5.0625 -15.53125 "/></g></g></g><g fill="#000000" fill-opacity="1"><g transform="translate(210.860878, 186.745872)"><g><path d="M 10.296875 -11.765625 C 8.941406 -12.515625 7.765625 -12.890625 6.765625 -12.890625 C 6.097656 -12.890625 5.578125 -12.753906 5.203125 -12.484375 C 4.828125 -12.222656 4.640625 -11.820312 4.640625 -11.28125 C 4.640625 -10.789062 4.910156 -10.359375 5.453125 -9.984375 C 5.992188 -9.609375 6.710938 -9.253906 7.609375 -8.921875 C 8.347656 -8.648438 8.972656 -8.34375 9.484375 -8 C 10.003906 -7.65625 10.4375 -7.179688 10.78125 -6.578125 C 11.132812 -5.972656 11.3125 -5.207031 11.3125 -4.28125 C 11.3125 -3.476562 11.101562 -2.734375 10.6875 -2.046875 C 10.269531 -1.367188 9.660156 -0.828125 8.859375 -0.421875 C 8.054688 -0.0234375 7.097656 0.171875 5.984375 0.171875 C 5.054688 0.171875 4.132812 0.0351562 3.21875 -0.234375 C 2.3125 -0.515625 1.460938 -0.9375 0.671875 -1.5 L 2.03125 -3.875 C 2.5625 -3.488281 3.171875 -3.164062 3.859375 -2.90625 C 4.546875 -2.65625 5.164062 -2.53125 5.71875 -2.53125 C 6.363281 -2.53125 6.925781 -2.664062 7.40625 -2.9375 C 7.882812 -3.21875 8.125 -3.664062 8.125 -4.28125 C 8.125 -5.082031 7.367188 -5.78125 5.859375 -6.375 C 4.972656 -6.71875 4.234375 -7.050781 3.640625 -7.375 C 3.054688 -7.707031 2.550781 -8.175781 2.125 -8.78125 C 1.695312 -9.382812 1.484375 -10.140625 1.484375 -11.046875 C 1.484375 -12.390625 1.921875 -13.46875 2.796875 -14.28125 C 3.671875 -15.09375 4.84375 -15.535156 6.3125 -15.609375 C 7.457031 -15.609375 8.414062 -15.476562 9.1875 -15.21875 C 9.96875 -14.957031 10.722656 -14.585938 11.453125 -14.109375 Z M 10.296875 -11.765625 "/></g></g></g><g fill="#000000" fill-opacity="1"><g transform="translate(240.026853, 186.745872)"><g><path d="M 11.40625 -15.53125 L 11.40625 -12.578125 L 7.640625 -12.578125 L 7.640625 0 L 4.578125 0 L 4.578125 -12.578125 L 0.953125 -12.578125 L 0.953125 -15.53125 Z M 11.40625 -15.53125 "/></g></g></g><g fill="#000000" fill-opacity="1"><g transform="translate(269.256069, 186.745872)"><g><path d="M 9.6875 -3.03125 L 4.53125 -3.03125 L 3.265625 0 L 0.25 0 L 7.25 -16.140625 L 7.421875 -16.140625 L 14.421875 0 L 10.890625 0 Z M 8.671875 -5.609375 L 7.171875 -9.390625 L 5.609375 -5.609375 Z M 8.671875 -5.609375 "/></g></g></g><g fill="#000000" fill-opacity="1"><g transform="translate(300.804315, 186.745872)"><g><path d="M 10.828125 0 L 7.34375 -5.359375 L 4.328125 0 L 0.53125 0 L 5.609375 -8.015625 L 0.734375 -15.53125 L 4.640625 -15.53125 L 8 -10.375 L 10.90625 -15.53125 L 14.625 -15.53125 L 9.6875 -7.8125 L 14.765625 0 Z M 10.828125 0 "/></g></g></g><path fill="#000000" d="M 58.894531 180.746094 L 332.972656 180.746094 L 332.972656 182.246094 L 58.894531 182.246094 Z M 58.894531 180.746094 " fill-opacity="1" fill-rule="nonzero"/><g fill="#000000" fill-opacity="1"><g transform="translate(128.675511, 231.51293)"><g><path d="M 1.71875 -13.265625 L 5.6875 -13.265625 C 7.375 -13.265625 8.765625 -12.9375 9.859375 -12.28125 C 10.953125 -11.632812 11.75 -10.789062 12.25 -9.75 C 12.75 -8.707031 13 -7.59375 13 -6.40625 C 13 -5.125 12.695312 -3.992188 12.09375 -3.015625 C 11.5 -2.046875 10.691406 -1.300781 9.671875 -0.78125 C 8.660156 -0.257812 7.546875 0 6.328125 0 L 1.71875 0 Z M 5.875 -2.53125 C 7.238281 -2.53125 8.316406 -2.875 9.109375 -3.5625 C 9.898438 -4.257812 10.296875 -5.265625 10.296875 -6.578125 C 10.296875 -7.640625 10.078125 -8.484375 9.640625 -9.109375 C 9.203125 -9.734375 8.691406 -10.164062 8.109375 -10.40625 C 7.523438 -10.644531 6.972656 -10.765625 6.453125 -10.765625 L 4.328125 -10.765625 L 4.328125 -2.53125 Z M 5.875 -2.53125 "/></g></g></g><g fill="#000000" fill-opacity="1"><g transform="translate(149.783952, 231.51293)"><g><path d="M 4.328125 -13.265625 L 4.328125 0 L 1.71875 0 L 1.71875 -13.265625 Z M 4.328125 -13.265625 "/></g></g></g><g fill="#000000" fill-opacity="1"><g transform="translate(163.034206, 231.51293)"><g><path d="M 12.484375 -1.328125 C 12.273438 -1.117188 11.910156 -0.894531 11.390625 -0.65625 C 10.867188 -0.425781 10.289062 -0.234375 9.65625 -0.078125 C 9.019531 0.0664062 8.445312 0.140625 7.9375 0.140625 C 6.53125 0.140625 5.289062 -0.128906 4.21875 -0.671875 C 3.15625 -1.222656 2.335938 -1.984375 1.765625 -2.953125 C 1.191406 -3.921875 0.90625 -5.019531 0.90625 -6.25 C 0.90625 -7.800781 1.207031 -9.113281 1.8125 -10.1875 C 2.425781 -11.269531 3.25 -12.078125 4.28125 -12.609375 C 5.320312 -13.148438 6.46875 -13.421875 7.71875 -13.421875 C 8.519531 -13.421875 9.273438 -13.328125 9.984375 -13.140625 C 10.691406 -12.960938 11.316406 -12.726562 11.859375 -12.4375 L 11.015625 -10 C 10.671875 -10.195312 10.191406 -10.375 9.578125 -10.53125 C 8.972656 -10.695312 8.46875 -10.78125 8.0625 -10.78125 C 6.613281 -10.78125 5.507812 -10.421875 4.75 -9.703125 C 3.988281 -8.984375 3.609375 -7.910156 3.609375 -6.484375 C 3.609375 -5.671875 3.789062 -4.957031 4.15625 -4.34375 C 4.53125 -3.738281 5.050781 -3.273438 5.71875 -2.953125 C 6.382812 -2.628906 7.144531 -2.46875 8 -2.46875 C 8.820312 -2.46875 9.429688 -2.582031 9.828125 -2.8125 L 9.828125 -4.421875 L 7.53125 -4.421875 L 7.53125 -6.9375 L 12.484375 -6.9375 Z M 12.484375 -1.328125 "/></g></g></g><g fill="#000000" fill-opacity="1"><g transform="translate(183.980437, 231.51293)"><g><path d="M 4.328125 -13.265625 L 4.328125 0 L 1.71875 0 L 1.71875 -13.265625 Z M 4.328125 -13.265625 "/></g></g></g><g fill="#000000" fill-opacity="1"><g transform="translate(197.230691, 231.51293)"><g><path d="M 9.75 -13.265625 L 9.75 -10.75 L 6.53125 -10.75 L 6.53125 0 L 3.90625 0 L 3.90625 -10.75 L 0.8125 -10.75 L 0.8125 -13.265625 Z M 9.75 -13.265625 "/></g></g></g><g fill="#000000" fill-opacity="1"><g transform="translate(215.004806, 231.51293)"><g><path d="M 8.28125 -2.59375 L 3.875 -2.59375 L 2.796875 0 L 0.21875 0 L 6.203125 -13.796875 L 6.34375 -13.796875 L 12.328125 0 L 9.296875 0 Z M 7.40625 -4.796875 L 6.125 -8.03125 L 4.796875 -4.796875 Z M 7.40625 -4.796875 "/></g></g></g><g fill="#000000" fill-opacity="1"><g transform="translate(234.76149, 231.51293)"><g><path d="M 4.328125 -13.265625 L 4.328125 -2.53125 L 10.5625 -2.53125 L 10.5625 0 L 1.71875 0 L 1.71875 -13.265625 Z M 4.328125 -13.265625 "/></g></g></g><path fill="#000000" d="M 128.675781 226.261719 L 253.527344 226.261719 L 253.527344 227.761719 L 128.675781 227.761719 Z M 128.675781 226.261719 " fill-opacity="1" fill-rule="nonzero"/><g fill="#000000" fill-opacity="1"><g transform="translate(161.574444, 249.809166)"><g><path d="M 4.375 -5.390625 L 4.375 -4.375 L 1.765625 -4.375 L 1.765625 -3.21875 L 4.078125 -3.21875 L 4.078125 -2.1875 L 1.765625 -2.1875 L 1.765625 -1.03125 L 4.484375 -1.03125 L 4.484375 0 L 0.703125 0 L 0.703125 -5.390625 Z M 4.375 -5.390625 "/></g></g></g><g fill="#000000" fill-opacity="1"><g transform="translate(169.38381, 249.809166)"><g><path d="M 3.578125 -4.09375 C 3.109375 -4.351562 2.703125 -4.484375 2.359375 -4.484375 C 2.117188 -4.484375 1.929688 -4.4375 1.796875 -4.34375 C 1.671875 -4.25 1.609375 -4.109375 1.609375 -3.921875 C 1.609375 -3.742188 1.703125 -3.59375 1.890625 -3.46875 C 2.078125 -3.34375 2.328125 -3.21875 2.640625 -3.09375 C 2.898438 -3 3.117188 -2.890625 3.296875 -2.765625 C 3.472656 -2.648438 3.617188 -2.488281 3.734375 -2.28125 C 3.859375 -2.070312 3.921875 -1.804688 3.921875 -1.484375 C 3.921875 -1.203125 3.847656 -0.941406 3.703125 -0.703125 C 3.566406 -0.472656 3.359375 -0.285156 3.078125 -0.140625 C 2.796875 -0.00390625 2.460938 0.0625 2.078125 0.0625 C 1.753906 0.0625 1.429688 0.015625 1.109375 -0.078125 C 0.796875 -0.179688 0.503906 -0.328125 0.234375 -0.515625 L 0.703125 -1.34375 C 0.890625 -1.207031 1.101562 -1.09375 1.34375 -1 C 1.582031 -0.914062 1.796875 -0.875 1.984375 -0.875 C 2.210938 -0.875 2.410156 -0.921875 2.578125 -1.015625 C 2.742188 -1.117188 2.828125 -1.273438 2.828125 -1.484375 C 2.828125 -1.765625 2.5625 -2.007812 2.03125 -2.21875 C 1.726562 -2.332031 1.472656 -2.445312 1.265625 -2.5625 C 1.054688 -2.675781 0.878906 -2.835938 0.734375 -3.046875 C 0.585938 -3.253906 0.515625 -3.519531 0.515625 -3.84375 C 0.515625 -4.300781 0.664062 -4.671875 0.96875 -4.953125 C 1.269531 -5.242188 1.675781 -5.398438 2.1875 -5.421875 C 2.59375 -5.421875 2.925781 -5.375 3.1875 -5.28125 C 3.457031 -5.195312 3.722656 -5.070312 3.984375 -4.90625 Z M 3.578125 -4.09375 "/></g></g></g><g fill="#000000" fill-opacity="1"><g transform="translate(176.585131, 249.809166)"><g><path d="M 3.96875 -5.390625 L 3.96875 -4.375 L 2.65625 -4.375 L 2.65625 0 L 1.59375 0 L 1.59375 -4.375 L 0.328125 -4.375 L 0.328125 -5.390625 Z M 3.96875 -5.390625 "/></g></g></g><g fill="#000000" fill-opacity="1"><g transform="translate(183.808427, 249.809166)"><g/></g></g><g fill="#000000" fill-opacity="1"><g transform="translate(189.119669, 249.809166)"><g><path d="M 3.90625 -1.03125 L 3.90625 0 L 0.390625 0 C 0.660156 -0.257812 0.796875 -0.390625 0.796875 -0.390625 C 1.253906 -0.859375 1.609375 -1.234375 1.859375 -1.515625 C 2.109375 -1.804688 2.316406 -2.097656 2.484375 -2.390625 C 2.648438 -2.679688 2.734375 -2.957031 2.734375 -3.21875 C 2.734375 -3.425781 2.664062 -3.585938 2.53125 -3.703125 C 2.394531 -3.828125 2.21875 -3.890625 2 -3.890625 C 1.78125 -3.890625 1.609375 -3.832031 1.484375 -3.71875 C 1.359375 -3.601562 1.296875 -3.476562 1.296875 -3.34375 C 1.296875 -3.050781 1.390625 -2.804688 1.578125 -2.609375 L 0.921875 -2.015625 C 0.785156 -2.078125 0.664062 -2.1875 0.5625 -2.34375 C 0.46875 -2.5 0.390625 -2.664062 0.328125 -2.84375 C 0.273438 -3.03125 0.25 -3.1875 0.25 -3.3125 C 0.25 -3.582031 0.320312 -3.84375 0.46875 -4.09375 C 0.625 -4.34375 0.847656 -4.539062 1.140625 -4.6875 C 1.429688 -4.84375 1.773438 -4.921875 2.171875 -4.921875 C 2.492188 -4.921875 2.78125 -4.84375 3.03125 -4.6875 C 3.289062 -4.539062 3.488281 -4.34375 3.625 -4.09375 C 3.769531 -3.84375 3.84375 -3.582031 3.84375 -3.3125 C 3.84375 -3.050781 3.789062 -2.796875 3.6875 -2.546875 C 3.59375 -2.296875 3.46875 -2.054688 3.3125 -1.828125 C 3.15625 -1.609375 2.953125 -1.34375 2.703125 -1.03125 Z M 3.90625 -1.03125 "/></g></g></g><g fill="#000000" fill-opacity="1"><g transform="translate(196.32099, 249.809166)"><g><path d="M 2.296875 0 C 1.910156 0.0078125 1.5625 -0.0703125 1.25 -0.25 C 0.945312 -0.4375 0.703125 -0.710938 0.515625 -1.078125 C 0.335938 -1.453125 0.25 -1.910156 0.25 -2.453125 C 0.25 -4.109375 0.929688 -4.929688 2.296875 -4.921875 C 2.679688 -4.921875 3.023438 -4.828125 3.328125 -4.640625 C 3.640625 -4.460938 3.882812 -4.1875 4.0625 -3.8125 C 4.25 -3.445312 4.34375 -2.992188 4.34375 -2.453125 C 4.34375 -1.898438 4.25 -1.4375 4.0625 -1.0625 C 3.882812 -0.695312 3.640625 -0.425781 3.328125 -0.25 C 3.023438 -0.0703125 2.679688 0.0078125 2.296875 0 Z M 2.296875 -1.015625 C 2.640625 -1.015625 2.878906 -1.144531 3.015625 -1.40625 C 3.160156 -1.664062 3.234375 -2.023438 3.234375 -2.484375 C 3.234375 -3.421875 2.921875 -3.890625 2.296875 -3.890625 C 1.953125 -3.890625 1.707031 -3.757812 1.5625 -3.5 C 1.425781 -3.25 1.359375 -2.90625 1.359375 -2.46875 C 1.359375 -2.007812 1.425781 -1.648438 1.5625 -1.390625 C 1.707031 -1.140625 1.953125 -1.015625 2.296875 -1.015625 Z M 2.296875 -1.015625 "/></g></g></g><g fill="#000000" fill-opacity="1"><g transform="translate(203.85198, 249.809166)"><g><path d="M 1.828125 -4.859375 L 1.828125 0 L 0.75 0 L 0.75 -3.828125 L 0.359375 -3.828125 L 0.359375 -4.859375 Z M 1.828125 -4.859375 "/></g></g></g><g fill="#000000" fill-opacity="1"><g transform="translate(209.302422, 249.809166)"><g><path d="M 2.46875 -3.203125 C 2.695312 -3.203125 2.921875 -3.132812 3.140625 -3 C 3.367188 -2.863281 3.550781 -2.675781 3.6875 -2.4375 C 3.820312 -2.195312 3.890625 -1.929688 3.890625 -1.640625 C 3.890625 -1.285156 3.804688 -0.976562 3.640625 -0.71875 C 3.472656 -0.46875 3.25 -0.273438 2.96875 -0.140625 C 2.695312 -0.00390625 2.40625 0.0625 2.09375 0.0625 C 1.738281 0.0625 1.414062 -0.0195312 1.125 -0.1875 C 0.84375 -0.363281 0.617188 -0.613281 0.453125 -0.9375 C 0.296875 -1.257812 0.21875 -1.648438 0.21875 -2.109375 C 0.21875 -2.648438 0.410156 -3.171875 0.796875 -3.671875 C 1.191406 -4.179688 1.703125 -4.617188 2.328125 -4.984375 L 3.03125 -4.21875 C 2.65625 -4.070312 2.335938 -3.878906 2.078125 -3.640625 C 1.828125 -3.410156 1.640625 -3.15625 1.515625 -2.875 C 1.753906 -3.09375 2.070312 -3.203125 2.46875 -3.203125 Z M 2.046875 -0.890625 C 2.265625 -0.890625 2.441406 -0.953125 2.578125 -1.078125 C 2.710938 -1.210938 2.78125 -1.394531 2.78125 -1.625 C 2.78125 -1.84375 2.710938 -2.007812 2.578125 -2.125 C 2.441406 -2.25 2.265625 -2.3125 2.046875 -2.3125 C 1.847656 -2.3125 1.675781 -2.253906 1.53125 -2.140625 C 1.382812 -2.023438 1.3125 -1.894531 1.3125 -1.75 L 1.3125 -1.578125 C 1.3125 -1.390625 1.382812 -1.226562 1.53125 -1.09375 C 1.675781 -0.957031 1.847656 -0.890625 2.046875 -0.890625 Z M 2.046875 -0.890625 "/></g></g></g></svg>